<svg xmlns="http://www.w3.org/2000/svg" width="256" height="256" viewBox="0 0 256 256"><g fill="none" fill-rule="evenodd"><path fill="#FFF" d="M0 10h256v237H0z"/><path fill="#0082C5" d="M36.84 147.964h32.587c20.736 0 34.314-13.178 34.684-30.23.248-9.82.248-19.897 0-29.975-.37-17.054-14.194-30.232-34.683-30.232H36.84v90.436zM69.428 77.94c8.146 0 13.207 4.522 13.33 10.078.247 9.69.247 19.637 0 29.456-.123 5.556-4.813 10.207-13.33 10.207H57.7V77.94h11.727zM112.692 147.964h32.587c20.735 0 34.313-13.178 34.683-30.23.247-9.82.247-19.897 0-29.975-.37-17.054-14.195-30.232-34.684-30.232H112.69v90.436zM145.28 77.94c8.145 0 13.206 4.522 13.33 10.078.246 9.69.246 19.637 0 29.456-.124 5.556-4.815 10.207-13.33 10.207h-11.727V77.94h11.726zM179.782 160.816s15.444 1.743 20.748-1.092c13.698-4.24 21.342-16.037 21.342-34.305V57.4h-22.158v68.02c0 .843.724 7.948-2.292 13.43-3.016 5.48-10.45 13.004-15.46 16.635-4.486 3.25-2.18 5.33-2.18 5.33z"/><path fill="#000" d="M66.123 168H54.508L44.02 187.443 33.6 168H21.987v46.452h11.35v-22.695l-.93-7.698h.266l1.99 5.11 4.846 8.825h8.96l5.044-8.96 1.925-4.976h.265l-.93 7.498v22.894h11.35V168zm35.675 35.37c.133-3.584.133-7.432 0-11.016-.265-6.37-5.51-11.746-14.535-11.746-9.624 0-14.402 5.376-14.6 11.746-.134 3.65-.134 7.432 0 11.016.264 6.37 5.175 11.746 14.6 11.746 8.96 0 14.27-5.31 14.535-11.746zm-10.553-10.55c.2 3.25.2 6.9 0 10.085-.066 1.328-1.394 2.92-3.982 2.92-2.655 0-3.982-1.592-4.05-2.92-.198-3.185-.198-6.835 0-10.086.068-1.33 1.395-2.92 3.984-2.92 2.654 0 3.982 1.59 4.048 2.92zm26.583 21.632v-22.828s2.124-1.66 4.646-1.66c1.726 0 2.788 1.395 2.788 3.054v21.434h10.42V193.35c0-7.5-2.987-12.742-10.62-12.742-3.915 0-7.898 2.987-7.898 2.987l-.464-2.323h-9.358v33.18h10.486zm40.72 0h9.358v-21.965c0-6.437-4.447-11.88-13.208-11.88-6.504 0-12.743 1.793-12.743 1.793l.996 8.36s5.708-1.392 10.288-1.392c3.385 0 4.248 2.588 4.248 4.71h-5.774c-8.03 0-11.283 3.187-11.283 9.823 0 6.438 3.184 11.15 9.755 11.15 4.58 0 7.898-2.92 7.898-2.92l.465 2.322zm-6.24-8.096c-1.46 0-1.858-1.062-1.858-2.787 0-1.527.465-2.92 2.523-2.92h4.513v3.383s-3.053 2.323-5.177 2.323zm44.57-1.526s-4.38.995-9.425.995c-2.256 0-3.716-1.46-3.783-2.92-.2-3.384-.2-6.702 0-10.086.067-1.594 1.593-2.92 3.783-2.92 4.78 0 9.292.596 9.292.596l.863-9.025s-5.84-.862-10.818-.862c-8.628 0-13.473 5.376-13.673 11.68-.132 3.716-.132 7.366 0 11.148.266 6.304 5.045 11.68 13.673 11.68 5.243 0 11.415-1.328 11.415-1.328l-1.327-8.958zm33.353-1.46c.133-3.584.133-7.432 0-11.016-.265-6.37-5.508-11.746-14.535-11.746-9.623 0-14.402 5.376-14.6 11.746-.134 3.65-.134 7.432 0 11.016.264 6.37 5.176 11.746 14.6 11.746 8.96 0 14.27-5.31 14.536-11.746zm-10.552-10.55c.2 3.25.2 6.9 0 10.085-.067 1.328-1.394 2.92-3.983 2.92-2.654 0-3.982-1.592-4.048-2.92-.2-3.185-.2-6.835 0-10.086.066-1.33 1.394-2.92 3.982-2.92 2.654 0 3.98 1.59 4.048 2.92z"/></g></svg>